<svg id="Layer_1" xmlns="http://www.w3.org/2000/svg" version="1.1" viewBox="0 0 150 150"> <defs> <style> .st0 { fill: #fff; } .st0, .st1, .st2 { fill-rule: evenodd; } .st3, .st1 { fill: #cfba87; } .st2 { fill: #e31f26; } </style> </defs> <g id="OSFP"> <path class="st0" d="M130.9,91.7c0,30.9-25,56-55.9,56s-56-25-56-56,25-55.9,55.9-55.9,55.9,25,55.9,55.9"/> <path class="st2" d="M111.8,54.9c-9.8-9.8-22.9-15.2-36.8-15.2s-27,5.4-36.8,15.2c-9.8,9.8-15.2,22.9-15.2,36.8s5.4,27,15.2,36.8c9.8,9.8,22.9,15.2,36.8,15.2s26.9-5.4,36.8-15.2c9.8-9.8,15.2-22.9,15.2-36.8s-5.4-26.9-15.2-36.8h0ZM111.3,128.1c-9.7,9.7-22.6,15.1-36.3,15.1s-26.6-5.3-36.3-15.1c-9.7-9.7-15.1-22.6-15.1-36.3s5.3-26.6,15.1-36.3c9.7-9.7,22.6-15.1,36.3-15.1s26.6,5.3,36.3,15.1c9.7,9.7,15.1,22.6,15.1,36.3s-5.3,26.6-15.1,36.3ZM75,41.4c-27.8,0-50.4,22.5-50.4,50.4s22.5,50.4,50.4,50.4,50.3-22.5,50.3-50.4-22.5-50.4-50.3-50.4h0ZM75,131.3c-21.9,0-39.6-17.7-39.6-39.6s17.7-39.6,39.6-39.6,39.6,17.7,39.6,39.6-17.7,39.6-39.6,39.6ZM75,53.2c-21.3,0-38.5,17.3-38.5,38.5s17.3,38.6,38.5,38.6,38.5-17.3,38.5-38.6-17.3-38.5-38.5-38.5h0ZM75,129.7c-20.9,0-37.9-17-37.9-37.9s17-37.9,37.9-37.9,37.9,17,37.9,37.9-17,37.9-37.9,37.9ZM88.7,110.1c0,0,0,.2,0,.3-.3,0-.8,0-1.3,0s-1.1,0-1.3,0c-.1,0-.1-.2,0-.3h.3c.6-.1.7-.2.7-1v-2.2c0-.7,0-.8-.7-.9h-.2c0,0,0-.3,0-.3.2,0,.7,0,1.2,0s1,0,1.2,0c.1,0,.1.2,0,.3h-.2c-.6.1-.7.2-.7,1v2.2c0,.8,0,.9.6.9h.3s0,0,0,0ZM93.5,107.9c0,1.1-.5,2.3-1.6,3.4-.8.7-1.7,1.1-2.5,1.2,0,0-.1-.2,0-.2.6-.2,1.1-.5,1.6-.8.6-.4,1.7-1.6,1.7-3.6s-.2-1.9-1.3-1.9-1.1.6-1.1,1.3.4,1.6,1.1,1.6.4,0,.5,0c0,0,0,.1,0,.2-.3.2-.6.4-1.1.4-.8,0-1.4-.7-1.4-1.6s1-2.1,2.1-2.1,1.9.9,1.9,2.3h0ZM98.8,109.3c-.2.4-.4.8-.5,1.1-.4,0-.9,0-1.5,0h-1.1c-.4,0-.7,0-1,0,0,0-.1-.1,0-.2.3-.2.7-.5,1.1-1,.6-.6,1.1-1.2,1.1-1.9s-.4-1.1-1-1.1-.8.3-1.1.7c-.1,0-.2,0-.2-.2.3-.5.9-1.2,1.7-1.2s1.4.5,1.4,1.3-.3,1.1-1,1.8l-.9.9c0,0,0,.2.2.2h1.3c.6,0,.8,0,1.1-.5,0,0,.2,0,.3,0h0ZM102.4,105.7c0,.2-.3.6-.6.7l-1.4.2c-.3,0-.4.1-.4.3,0,.2,0,.3.3.5.2.1.4.2.5.4.7.5,1.2,1.1,1.2,2,0,1.5-1.6,2.5-2.4,2.7-.1,0-.2-.2,0-.3.6-.2,1.7-1,1.7-2.2s-.4-1.2-.9-1.5c-.5-.3-.9-.5-.9-.9s0-.5.2-.9c.1-.3.3-.7.5-.7.1,0,.4,0,.7-.1h.8c.4-.2.5-.2.6-.3.1,0,.1,0,.1.1h0ZM110,90.3c-1.2-1.8-3.6-4.3-8.8-4.6,1.3-.4,4.3-4.1,4.5-6.1-1.2-1.1-3.2-1.2-4.6-1.5.5-3.2-2.1-5.1-2.4-5.4-.1-.3-.3-4.9-6.1-6.3-.2,0-1.6-3.3-5-4.9-5.4-2.5-9.5-.6-10.4-.4-8.3-1.3-10.3,2.6-10.8,3.1-.3.3-3.3-.3-6.2,2.9-.8,0-4.1-1.9-5.3-1.6-.5,1.3.1,6.3.4,7.2-2.8.6-7.4-1.2-8.5-.3-.3,2,1.5,4.4,1.5,4.5-2.1-.2-6.2,0-7.5,1-.3.3.5,1.9,1.5,3,1.2,1.1,3,2.1,5.5,2.3,0,0-4.4,2.7-5.9,4.7.4.3,3.6,1.2,3.9,1.3,1.7.6,6.6-1.1,6.7-1.1-.3,1.3-1.2,4.8-1.2,5.5,0,1,2,2.4,2.8,2.9,0,2.3-.2,8.9-.2,8.9,0,1-.2,2.4.1,3.2,1,.2,4.7-.8,4.8-.7.4.5.4,2.2.6,2.9.6.1,1.1.5,1.8.5.2.6-.3,1.6,0,2.1.2.7,1.4.9,2.1,1.2,0,1.3,0,2.6,0,4,.3.7,3,1.7,3.7,2.1,0,0,5.7-5.5,5.7-5.6,1.1,1.1,1.8,1.9,2.6,3.1-.9,2.5-4.1,6.9-4.3,7.2-.1.2.7.9.8,1,1.1-1.3,1.6-2,2.6-3.7,1-1.8,1.6-2.7,2.5-4.8-1-1.2-2.1-2.4-3-3.6.5-1.4,1.1-1.8,1.9-3.2-.3-.2-.5-.4-1-.3-2.7,3.2-4.9,5.3-7.9,8.1-.4-.3-1.7-.7-2.1-.9-.2-.8.2-3.5-.1-4-.3-.8-1.5-.7-2.1-1.2,0,0-.2-.1-.2-.1.1-3,0-2.2-1.9-3.1,0,0-.2-.3-.2-.6,0-.9,0-2.5-.3-3.2-.8,0-4.2,1.1-4.8,1.4,0,0-.1,0-.1,0h0v-.4c0-2.3,0-5.3.3-7.5,0-.7.1-1.4.2-2,0-.4,0-.7.2-1,2.1,0,3.8.6,5.8.8.8-.9,2-1.4,3-2.2.7-.5,1.6-1.1,2.2-1.6,0,0,.1-.1.1-.2,0,0,0-.8-.2-1.1-.7,0-2.2.6-3.1,1-1.6.6-3.3.9-4.8,1.3-1.1.3-2.5.8-3.5,1-.9,0-1.9-.9-2.2-1.6-.5-1,1.2-5,.8-6.7,1.6-1.6,2.3-2.6,3-2.9-1.1,1.8-1.7,3.5-1.7,5.7,1.9-.2,4.1-.4,6-1.1,3-1.2,4.2-2.5,5.3-3.9.7,4.1,2.2,5.4,3.3,8.7,2.3,0,3.9-6.3,4-6.3,1,3.7,2.2,4.5,2.7,6.8.9-.1,1.7-2.1,2.2-2.2,0,.4.1.6.3,1,3.8-.3,6.7-3.3,6.8-3.3-1.7,4.1,2.1,9.6,2.5,10,1.5-.6,3.3-3.3,3.6-3.6.7,1.6,1.6,3,3,4,.6.5,1.2.7,1.9,1.2.7-.6,1.2-2.7,1.5-3.1,1.7,1.9,5.2,3.9,7.8,2.9,0,0-.4-6.2-4.4-8.5.6,0,1.4.3,1.9.4.9.2,5.1-.5,6.6-2.3h0ZM104,80.3c-.2.7-.8,1.1-1.3,1.6-4.1,3.7-5.4,2.7-9.8,2.2,2.7-4.5,9-5.1,11.2-3.7h0ZM88.4,71.5c1.4,4.2-.7,9.5-8.4,10.7,0,0,6.7-3.1,7-7.4-.7-.3-2.1-.5-2.1-.5.8-1.2,2.6-2.5,3.5-2.8h0ZM55.8,66.9c1.3.2,4.9,2.1,5.7,2.9.7.8,1,2.1,1.3,3.3.4,1.6.4,3.5-.2,4.4-2-.2-5.7-3.9-6.4-6.2-.6-2.3-.6-3.3-.5-4.4h0ZM42.5,78.8c.9-1.1,6.4-1,7.3-.4.7.5,2.4,1.6,3.3,1.9-.4.7-2.8,1.5-4.4,1.5-2.3,0-5.2-1.3-6.2-3h0ZM50.9,87.1c-.7.3-1.6.3-2.3.4-1.3.2-2.7-.4-3.7-.6,0-.1,4.7-3.6,7.4-4.6.6-.2,3.2-.3,3.7,0-.4,1.3-3.9,4.2-5.1,4.8h0ZM55.2,80.2c-2.3-.8-6.6-4.5-7.1-6.8,1.7,0,2.9.3,4.2.7,2.1.3,3.2.3,5.2,1.9,1,.8,2.1,2.8,2.2,3.5-.7.5-3,1.1-4.4.7h0ZM61.5,87.1c-1.3.6-3,.6-4.9,1.1,1.8-8,7.8-8.5,9.3-8.5,0,2-.8,5.7-4.3,7.4h0ZM65.5,76.2c-2-3.3-2.1-6.1-.4-9.9,2.1.3,6.4,6.9,2.4,11.9-.8-.4-1.5-1.2-2-2h0ZM70.3,91.5c-.5-2-1.8-3.5-2.3-5.7-.2-.6-.4-1.8,0-2.7.4-1.2,1.1-2.5,1.8-3.3,2.7,1.2,3.7,9.1.6,11.7h0ZM70.1,77.6c.3-3.6,4.3-6.9,9.8-7.5-.1,3.4-3.3,6.8-6.1,7.5-1.2.1-3.5.1-3.7,0h0ZM76.7,92.4c-.4-1.9-3.2-6.6-2.4-9.2.2-.7.5-1.5.8-2.2,1.2.5,2.8,3.1,3.1,4.1.9,3-.8,7.1-1.4,7.3h0ZM77.9,80.3c-1.1-.2-2.1-.7-2.8-1.2,2.8-3,7.4-4.9,10-3.8-.6,1.8-2.5,3.5-4.3,4.2-.5.2-2.1,1-2.9.8h0ZM79.5,91.5c.3-2.2.9-5.5,2.4-6.5,1-.7,3-1.3,4.1-1.4.8,2.2-2.5,7.6-6.5,7.9h0ZM88.4,97.5c-.4-.8-1-1.7-1.4-2.5-.8-1.8-.4-5.3.4-6.9.5-1.2,1.8-1.7,2.5-2.7,2.5,2.4-.6,11.7-1.6,12.1h0ZM85.1,82.2c2.1-1.1,3.2-3.2,5-4.4,3.1-2.1,5.8-1.7,6.4-1.1-.7,1.3-2.6,3.6-4,4.7-2.4,1.4-6.8,1.5-7.4.8h0ZM96.2,99.1c-1.2-.4-2.3-1.7-2.9-2.5-1.8-2.7-1.1-6.1.4-8.6.5.4,1,1.1,1.4,1.7,2.3,3.2,1.8,5.2,1.1,9.5h0ZM101.6,93.8c1.4,1.5,2.8,3.9,3.3,6.2-3.9-.2-6.4-3.8-6.4-7.9,1.1.1,2.4.9,3.1,1.6ZM96.6,87.8c2.5-3.1,11.7.9,11.7,2.3-1.6.7-2.8.7-4.1.8-3,.3-7.2-2.6-7.6-3.1h0Z"/> <path class="st0" d="M46.1,62c1.5-1.5,1.7-3.8.2-5.3-1.5-1.5-3.7-1.5-5.3,0-1.5,1.5-1.7,3.8-.2,5.3,1.5,1.5,3.7,1.5,5.3,0h0ZM41.9,57.6c1.1-1,2.5-1.1,3.5,0,1,1,.9,2.5-.1,3.5-1.1,1-2.5,1.1-3.5,0s-.9-2.5.1-3.5h0ZM49.8,53.3l.9,4.9-1.3.2-1.4-7.4.3-.2,6.3,4.2-.7,1.1-4.2-2.8h0ZM55.9,51.6l-3.8-2.6.8-1,3,2.1.4-3.6h1.3s-.5,4.6-.5,4.6l1.2,2.6-1.2.5-1.2-2.6h0ZM66.6,46.2l-1.6,3.3h-.2s-2.9-2.1-2.9-2.1l.7,4.9-1.3.2-1-7.2.5-.2,3.8,2.8,2.1-4.2h.5l2.3,6.9-1.2.4-1.5-4.7h0ZM72.7,44.4v5.8c0,0-1.2,0-1.2,0v-7c0,0,5.5,0,5.5,0v7c0,0-1.2,0-1.2,0v-5.8c0,0-3.2,0-3.2,0h0ZM81,50.6l-1.3-.2.9-7,1.3.2-.9,7h0ZM87.6,44.7l-4.8,5.9,1,.8.9-1.1,3,.8.2,1.4,1.3-.2-1.1-7.5h-.4c0,0,0-.1,0-.1ZM85.5,49.2l1.5-1.9.4,2.4-1.9-.5h0ZM91.5,53.6l-1.1-.5,3-6.4,1.1.6-1,2.2,3.2-1.1,1.4.7-3.8,1.4,1.7,5.4-1.6-.7-1.4-4.6-1.5,3.2h0ZM98.8,58c1.7,1.2,4,1,5.3-.8,1.3-1.7.8-3.9-1-5.2-1.7-1.2-4-1-5.3.8-1.3,1.7-.8,3.9,1,5.2h0ZM98.8,53.5c.8-1.2,2.3-1.3,3.5-.5,1.2.9,1.5,2.3.6,3.4-.8,1.2-2.3,1.3-3.5.5-1.2-.9-1.5-2.3-.7-3.4h0ZM103.1,60.3l3.5-.8.4-2.9.7-.7,3.2,3.2-.9.9-1.9-1.9-.4,2.5-3,.6,2,2-.9.9-3.3-3.3.5-.5h0ZM32,70.2l-.6-.3,2.2-4,.3.2,2,3.4,3.3-.3.5.3-2.1,3.8-.6-.3,1.6-2.9-3.1.3-1.8-3.2-1.7,3h0ZM31.9,75.7l-2.5-1,.3-.7,2.6,1,4.8-1.1.2.8-4.3.9,2.6,3.6-.7.5-2.9-3.9h0ZM33.5,91.1l-6.9-3.1-.2.2v6c0,0,.2.2.2.2l7-3v-.3h0ZM27,93.3v-4.3s4.9,2.2,4.9,2.2l-4.9,2.1h0ZM27.9,100.8h-.7c0,0-.6-3.8-.6-3.8l7-1,.5,3.5h-.7c0,.1-.4-2.6-.4-2.6l-2,.3.4,2.5h-.7c0,0-.4-2.4-.4-2.4l-3,.4.5,3.1h0ZM28.8,104.3l1,3.3-.6.2-1.3-4.4h.4c0-.1,3.8.8,3.8.8l2-2.6.6-.2,1.3,4.2-.6.2-1-3.2-1.9,2.4-3.5-.9h0ZM39.8,113.5l-6.2,3.9-.4-.7,4.9-3.2-4.6-.4-.2-.3,2.3-4-5.4,2.2-.3-.7,6.8-2.8.2.5-2.6,4.5,5.2.4.3.5h0ZM43.3,118.1c-1.4-1.6-3.7-2-5.3-.6-1.6,1.4-1.8,3.6-.3,5.3,1.4,1.6,3.7,2,5.3.6,1.7-1.4,1.8-3.6.3-5.3h0ZM42.4,122.8c-1.3,1.1-3.1.8-4.2-.5-1.2-1.4-1.1-3.1.3-4.2,1.3-1.1,3.1-.8,4.2.5,1.2,1.4,1.1,3.1-.3,4.2h0ZM46.7,122l3.3,2.8-.4.5-2.5-2.1-.3,3.1-3.5,1.2,2.7,2.2-.4.5-3.5-2.9.2-.3,3.7-1.3.3-3.3.4-.4h0ZM58.7,130.1v-.3c.1,0-.6-.3-.6-.3v.3c-2.1-.7-4.1-.2-4.7,1.4-.7,1.6.2,3.3,2.2,4.3l-.2.5.7.3.2-.5c2,.7,3.9.2,4.6-1.4.7-1.6-.2-3.3-2.2-4.3h0ZM55.8,134.7c-1.5-.8-2.2-2.1-1.7-3.3.5-1.2,2.1-1.6,3.6-1l-1.9,4.4h0ZM60.1,134c-.5,1.2-2.1,1.5-3.6,1l1.9-4.4c1.5.8,2.3,2.1,1.7,3.3h0ZM63.9,131.5l.8.2-1.8,6.8-.8-.2,1.8-6.8h0ZM69.6,132.5l1.9,7.4-.8.2-1.5-5.9-3,5.3-.7-.4,3.8-6.6h.3s0,0,0,0ZM76.1,132.9l-2.8,7.2.7.3.7-1.7h3.4c0-.1.8,1.5.8,1.5l.7-.3-3.2-7h-.3s0,0,0,0ZM74.9,138l1.3-3.5,1.6,3.4h-2.9c0,0,0,0,0,0ZM91.2,129.5l5.4,5.4-.6.5-4.3-4.3v6.1c.1,0-.6,0-.6,0v-7.6c-.1,0,.1-.1.1-.1h0ZM104.2,129.4l.4.6-2.2,1.5-.5-.8c.6-.9,1.1-2.5.4-3.6-.9-1.4-2.8-1.4-4.1-.5-1.3.9-2,2.6-1,3.9.7,1.1,2.4,1.2,3.5,1.1l.5.8-2.2,1.5-.4-.6,1.4-.9c-1.3,0-2.7-.3-3.4-1.4-1.2-1.8-.3-4,1.3-5,1.6-1.1,3.9-1.1,5.1.7.8,1.1.6,2.5,0,3.7l1.4-.9h0ZM112.8,108.5l6.2,3.3-.4.7-5.6-3-1.7,3.3,5.6,3-.4.7-6.2-3.3,2.5-4.7h0ZM121,104.4l.6.2-1.2,3.7-6.7-2.2,1.1-3.3.6.2-.9,2.6,1.9.6.8-2.4.6.2-.8,2.4,2.8.9,1-3h0ZM115.5,99.6l6.9,1.4-.2.8-6.9-1.4.2-.8h0ZM120.1,95.3c.1-1.2-.7-2.4-1.8-2.5-1.2-.1-2.1.7-2.2,2l-.2,2,7,.6v-.8c0,0-2.9-.3-2.9-.3v-1.1h.1,0ZM119.5,95.3v1.1c-.1,0-2.8-.2-2.8-.2v-1.2c.2-.9.7-1.4,1.6-1.3.7,0,1.2.9,1.2,1.7ZM121.9,90.7l-.2-3.4,1.6-.8-.3-.7-6.9,3.4v.3s7.2,2.6,7.2,2.6l.3-.7-1.7-.6h0ZM117.8,89.2l3.3-1.6v2.9c.1,0-3.3-1.2-3.3-1.2h0ZM115.6,83.8l6.9-1.2v.8c.1,0-6.8,1.3-6.8,1.3v-.8h-.1ZM119.4,74.2l-.5-1.6.6-.2.9,2.5-.9.3c-.7-.8-2.2-1.7-3.4-1.3-1.5.5-2.1,2.3-1.5,3.8.5,1.5,2,2.6,3.6,2,1.2-.4,1.8-2,1.9-3.1l.9-.3.9,2.5-.6.2-.6-1.6c-.2,1.3-1,2.5-2.2,3-2,.7-3.9-.7-4.5-2.5-.6-1.8,0-4.1,2-4.8,1.3-.4,2.6.1,3.6,1h0ZM110.4,68.9l1.6,2.9,1.3-2.8h3.7c0,0-1.7-2.9-1.7-2.9l.6-.3,2.3,4-.3.2h-3.9c0-.1-1.4,2.9-1.4,2.9l-.5.3-2.2-3.8.6-.3h0ZM33.6,86.4l-6.9-1.3.2-.8h0l5.6-2.7-4.9-1.4.2-.7,6.9,2-6.5,3.2,5.5,1.1-.2.8h0ZM83.9,131.8c-2.1.4-3.5,2.3-3,4.4.4,2.1,2.3,3.3,4.5,2.8,2.1-.4,3.4-2.3,3-4.4-.4-2.1-2.4-3.3-4.5-2.8h0ZM85.2,138.3c-1.8.4-3.2-.5-3.6-2.2-.4-1.7.7-3.1,2.4-3.5,1.8-.4,3.2.5,3.6,2.2.4,1.7-.7,3.1-2.4,3.5h0ZM86.6,134.6v.7c.1,0-4,.9-4,.9v-.7c-.1,0,4-.9,4-.9h0ZM106.3,118.7l5,4.9-.6.6h0l-6.2-.9,3.3,3.9-.6.5-4.6-5.5,7.1,1-4-3.9.6-.6h0Z"/> </g> <polygon class="st1" points="105.5 20.4 105.1 26.5 110.7 29 104.7 30.4 104.1 36.5 100.9 31.3 94.9 32.6 98.9 27.9 95.8 22.7 101.5 25 105.5 20.4"/> <polygon class="st1" points="128.3 35.2 125.8 40.8 130.2 45 124.1 44.3 121.5 49.8 120.2 43.8 114.2 43 119.5 40 118.4 34 122.9 38.1 128.3 35.2"/> <polygon class="st1" points="44.5 20.4 48.5 25 54.2 22.7 51.1 27.9 55.1 32.6 49.1 31.3 45.9 36.5 45.3 30.4 39.3 29 44.9 26.5 44.5 20.4"/> <polygon class="st1" points="21.7 35.2 27.1 38.1 31.6 34 30.5 40 35.8 43 29.8 43.8 28.5 49.8 25.9 44.3 19.8 45 24.2 40.8 21.7 35.2"/> <polygon class="st3" points="75 8 77.2 14.8 84.3 14.8 78.6 18.9 80.8 25.7 75 21.5 69.2 25.7 71.4 18.9 65.7 14.8 72.8 14.8 75 8"/> <path class="st3" d="M84.1,30.4l-9.1-6.6-9.1,6.6,3.5-10.7-9.1-6.6h11.3l3.5-10.7,3.5,10.7h11.3l-9.1,6.6,3.5,10.7h0ZM75,22.9l7.8,5.6-3-9.1,7.8-5.6h-9.6l-3-9.1-3,9.1h-9.6l7.8,5.6-3,9.1,7.8-5.6h0Z"/> </svg>